<?xml version="1.0" encoding="UTF-8"?>
<svg id="Layer_2" data-name="Layer 2" xmlns="http://www.w3.org/2000/svg" viewBox="0 0 54.13 51.2">
  <defs>
    <style>
      .cls-1 {
        fill: #f0c27b;
      }

      .cls-2 {
        fill: #fff1d1;
      }
    </style>
  </defs>
  <g id="Layer_1-2" data-name="Layer 1">
    <g>
      <g>
        <path class="cls-2" d="M14.83,49.39c-3.66,0-6.71-5.04-6.71-11.21L5.26,15.56c-.13-.77-.2-1.52-.2-2.26C5.05,6.21,10.82,.44,17.91,.44c4.73,0,9.06,2.58,11.31,6.74,.07,.14,.22,.22,.37,.23h.02c.15,0,.29-.08,.37-.2,2.38-3.73,6.43-5.95,10.84-5.95,7.09,0,12.86,5.77,12.86,12.86,0,.74-.07,1.49-.2,2.24l-2.86,21.76c0,6.21-3.03,11.23-6.75,11.26l-7.47-1.42c-2.32-.44-4.7-.67-7.07-.67s-4.79,.23-7.14,.68l-7.37,1.42Z"/>
        <path d="M17.91,.88c4.56,0,8.75,2.5,10.93,6.51,.15,.27,.43,.45,.74,.46,.01,0,.02,0,.03,0,.3,0,.58-.15,.74-.41,2.3-3.6,6.21-5.75,10.47-5.75,6.85,0,12.42,5.57,12.42,12.42,0,.71-.06,1.44-.2,2.2l-2.86,21.74s0,.08,0,.12c0,5.79-2.86,10.69-6.27,10.76l-7.43-1.41c-2.35-.45-4.76-.67-7.15-.67s-4.85,.23-7.22,.69l-7.28,1.4c-3.41-.08-6.27-4.97-6.27-10.76,0-.04,0-.07,0-.11L5.69,15.46c-.13-.72-.19-1.45-.19-2.16C5.49,6.45,11.07,.88,17.91,.88m0-.88C10.57,0,4.61,5.95,4.61,13.3c0,.79,.07,1.56,.2,2.31l2.86,22.56c0,6.43,3.24,11.65,7.23,11.65l7.37-1.42c2.33-.45,4.69-.67,7.06-.67s4.68,.22,6.99,.66l7.51,1.43c3.99,0,7.23-5.21,7.23-11.65l2.86-21.74c.13-.75,.2-1.52,.2-2.31,0-7.35-5.95-13.3-13.3-13.3-4.72,0-8.85,2.46-11.22,6.16C27.37,2.82,22.97,0,17.91,0h0Z"/>
      </g>
      <g>
        <path class="cls-1" d="M10.21,50.77c-3.66,0-6.71-5.04-6.71-11.21L.64,16.94c-.13-.77-.2-1.52-.2-2.26C.44,7.59,6.21,1.82,13.3,1.82c4.73,0,9.06,2.58,11.31,6.74,.07,.14,.22,.22,.37,.23h.02c.15,0,.29-.08,.37-.2,2.38-3.73,6.43-5.95,10.84-5.95,7.09,0,12.86,5.77,12.86,12.86,0,.74-.07,1.49-.2,2.24l-2.86,21.76c0,6.21-3.03,11.23-6.75,11.26l-7.47-1.42c-2.33-.44-4.7-.67-7.07-.67s-4.79,.23-7.14,.68l-7.37,1.42Z"/>
        <path d="M13.3,2.27c4.56,0,8.75,2.5,10.93,6.51,.15,.27,.43,.45,.74,.46,.01,0,.02,0,.03,0,.3,0,.58-.15,.74-.41,2.3-3.6,6.21-5.75,10.47-5.75,6.85,0,12.42,5.57,12.42,12.42,0,.71-.06,1.44-.2,2.2l-2.86,21.74s0,.08,0,.11c0,5.79-2.86,10.69-6.27,10.76l-7.43-1.41c-2.35-.45-4.76-.67-7.15-.67s-4.85,.23-7.22,.69l-7.28,1.4c-3.41-.08-6.27-4.97-6.27-10.76,0-.04,0-.07,0-.11L1.07,16.85c-.13-.72-.19-1.45-.19-2.16C.88,7.84,6.45,2.27,13.3,2.27m0-.88C5.95,1.38,0,7.34,0,14.68c0,.79,.07,1.56,.2,2.31l2.86,22.56c0,6.43,3.24,11.65,7.23,11.65l7.37-1.42c2.33-.45,4.69-.67,7.06-.67s4.68,.22,6.99,.66l7.51,1.43c3.99,0,7.23-5.21,7.23-11.65l2.86-21.74c.13-.75,.2-1.52,.2-2.31,0-7.35-5.95-13.3-13.3-13.3-4.71,0-8.85,2.46-11.22,6.16-2.25-4.15-6.65-6.97-11.7-6.97h0Z"/>
      </g>
      <ellipse class="cls-2" cx="8.31" cy="11.3" rx="1.15" ry="2.08"/>
      <ellipse class="cls-2" cx="11.77" cy="17.3" rx=".92" ry="1.61"/>
      <ellipse class="cls-2" cx="5.31" cy="19.6" rx=".92" ry="1.61"/>
    </g>
  </g>
</svg>