<?xml version="1.0" encoding="UTF-8"?>
<svg id="Layer_2" data-name="Layer 2" xmlns="http://www.w3.org/2000/svg" width="27.49" height="31.38" viewBox="0 0 27.49 31.38">
  <defs>
    <style>
      .cls-1, .cls-2, .cls-3 {
        fill: none;
      }

      .cls-1, .cls-2, .cls-3, .cls-4, .cls-5 {
        stroke: #000;
      }

      .cls-1, .cls-3, .cls-4, .cls-5 {
        stroke-linejoin: round;
      }

      .cls-1, .cls-4, .cls-5 {
        stroke-width: .75px;
      }

      .cls-2 {
        stroke-linecap: round;
        stroke-miterlimit: 10;
      }

      .cls-3 {
        stroke-width: 2px;
      }

      .cls-4 {
        fill: #fff;
      }
    </style>
  </defs>
  <g id="Layer_1-2" data-name="Layer 1">
    <g>
      <polygon class="cls-3" points="1 5.88 1 26.42 20.23 26.42 20.23 1 5.73 1 1 5.88"/>
      <g>
        <line class="cls-2" x1="4.74" y1="8.83" x2="16.36" y2="8.83"/>
        <line class="cls-2" x1="4.86" y1="13.65" x2="16.49" y2="13.65"/>
        <line class="cls-2" x1="4.86" y1="18.6" x2="16.49" y2="18.6"/>
      </g>
      <g>
        <line class="cls-1" x1="11.91" y1="26.9" x2="13.7" y2="28.69"/>
        <g>
          <polygon class="cls-4" points="27.11 15.28 25.33 13.49 11.91 26.9 10.5 29.41 11.19 30.1 13.7 28.69 27.11 15.28"/>
          <polygon class="cls-5" points="9.6 31 11.19 30.1 10.5 29.41 9.6 31"/>
          <line class="cls-4" x1="23.29" y1="15.52" x2="25.08" y2="17.31"/>
          <line class="cls-4" x1="11.91" y1="26.9" x2="13.7" y2="28.69"/>
        </g>
        <line class="cls-5" x1="23.47" y1="15.35" x2="25.25" y2="17.14"/>
      </g>
    </g>
  </g>
</svg>